<svg width="515" height="367" viewBox="0 0 515 367" fill="none" xmlns="http://www.w3.org/2000/svg">
<path d="M232.385 74.6745C232.387 75.2403 232.221 75.7941 231.909 76.2655C231.596 76.737 231.151 77.105 230.629 77.3229C230.107 77.5409 229.533 77.5989 228.978 77.4897C228.424 77.3805 227.914 77.109 227.513 76.7096C227.113 76.3102 226.84 75.8008 226.729 75.2459C226.618 74.691 226.674 74.1157 226.89 73.5927C227.106 73.0697 227.472 72.6226 227.942 72.308C228.411 71.9934 228.964 71.8254 229.529 71.8254C230.285 71.8254 231.01 72.1253 231.545 72.6593C232.081 73.1933 232.383 73.9179 232.385 74.6745Z" fill="#DDDDDD"/>
<path d="M245.617 74.6743H301.059" stroke="#DDDDDD" stroke-width="2" stroke-linecap="round" stroke-linejoin="round"/>
<path d="M232.385 87.8999C232.385 88.4654 232.218 89.0181 231.904 89.4883C231.59 89.9585 231.144 90.3249 230.622 90.5413C230.1 90.7577 229.526 90.8143 228.972 90.704C228.418 90.5937 227.909 90.3214 227.51 89.9215C227.11 89.5217 226.838 89.0123 226.728 88.4577C226.618 87.9031 226.675 87.3282 226.891 86.8058C227.107 86.2834 227.473 85.8369 227.943 85.5227C228.412 85.2086 228.964 85.0409 229.529 85.0409C229.905 85.0396 230.277 85.1126 230.624 85.2558C230.971 85.3991 231.286 85.6096 231.552 85.8754C231.817 86.1411 232.028 86.4568 232.171 86.8043C232.314 87.1517 232.387 87.5241 232.385 87.8999V87.8999Z" fill="#DDDDDD"/>
<path d="M245.617 87.8997H266.987" stroke="#DDDDDD" stroke-width="2" stroke-linecap="round" stroke-linejoin="round"/>
<path d="M68.4952 74.6745C68.4971 75.2403 68.3313 75.7941 68.0187 76.2655C67.7061 76.737 67.2607 77.105 66.7391 77.3229C66.2174 77.5409 65.6428 77.5989 65.0881 77.4897C64.5335 77.3805 64.0237 77.109 63.6233 76.7096C63.2228 76.3102 62.9498 75.8008 62.8388 75.2459C62.7278 74.691 62.7838 74.1157 62.9996 73.5927C63.2155 73.0697 63.5816 72.6226 64.0514 72.308C64.5213 71.9934 65.0739 71.8254 65.6392 71.8254C66.3949 71.8254 67.1198 72.1253 67.6551 72.6593C68.1905 73.1933 68.4925 73.9179 68.4952 74.6745V74.6745Z" fill="#DDDDDD"/>
<path d="M81.7368 74.6743H155.603" stroke="#DDDDDD" stroke-width="2" stroke-linecap="round" stroke-linejoin="round"/>
<path d="M65.6392 90.7589C67.2165 90.7589 68.4952 89.4789 68.4952 87.8999C68.4952 86.3209 67.2165 85.0409 65.6392 85.0409C64.0619 85.0409 62.7832 86.3209 62.7832 87.8999C62.7832 89.4789 64.0619 90.7589 65.6392 90.7589Z" fill="#DDDDDD"/>
<path d="M81.7368 87.8997H117.497" stroke="#DDDDDD" stroke-width="2" stroke-linecap="round" stroke-linejoin="round"/>
<path d="M68.4952 101.365C68.4971 101.931 68.3313 102.485 68.0187 102.956C67.7061 103.428 67.2607 103.796 66.7391 104.014C66.2174 104.232 65.6428 104.29 65.0881 104.18C64.5335 104.071 64.0237 103.8 63.6233 103.4C63.2228 103.001 62.9498 102.491 62.8388 101.937C62.7278 101.382 62.7838 100.806 62.9996 100.283C63.2155 99.7603 63.5816 99.3132 64.0514 98.9986C64.5213 98.684 65.0739 98.5161 65.6392 98.5161C66.3949 98.5161 67.1198 98.8159 67.6551 99.3499C68.1905 99.884 68.4925 100.609 68.4952 101.365V101.365Z" fill="#DDDDDD"/>
<path d="M81.7368 101.365H128.291" stroke="#DDDDDD" stroke-width="2" stroke-linecap="round" stroke-linejoin="round"/>
<path d="M343.929 43.5253H221.561V58.5101H343.929V43.5253Z" stroke="#DDDDDD" stroke-linecap="round" stroke-linejoin="round"/>
<path d="M183.174 43.5253H60.8062V58.5101H183.174V43.5253Z" stroke="#DDDDDD" stroke-linecap="round" stroke-linejoin="round"/>
<path d="M505.741 14.8553H9.26807V331.745H505.741V14.8553Z" stroke="#DDDDDD" stroke-width="2" stroke-linecap="round" stroke-linejoin="round"/>
<path d="M514 332.145H1V346H514V332.145Z" stroke="#DDDDDD" stroke-width="2" stroke-linecap="round" stroke-linejoin="round"/>
<path d="M514 1H1V14.8552H514V1Z" stroke="#DDDDDD" stroke-width="2" stroke-linecap="round" stroke-linejoin="round"/>
<path d="M434.062 60.4993C410.865 51.0026 399.361 77.6234 408.099 94.3476C410.156 98.2662 409.856 101.455 407.909 106.213C405.962 110.972 405.912 114.371 411.174 116.51C416.437 118.649 418.764 116.21 420.711 111.452C422.658 106.693 424.705 104.214 428.879 102.855C446.834 97.0566 457.27 69.996 434.062 60.4993Z" fill="#F9F9F9" stroke="#DDDDDD" stroke-linecap="round" stroke-linejoin="round"/>
<path d="M413.78 111.382C412.432 105.714 412.882 101.775 416.936 100.815C420.99 99.8557 424.246 97.5565 422.468 94.5875C420.691 91.6186 413.321 90.9288 415.338 94.5276C417.355 98.1263 427.971 96.8367 425.484 93.318C422.998 89.7992 417.066 86.8802 419.492 86.3204C421.919 85.7606 429.339 89.1194 426.942 86.5003C422.129 81.2522 427.751 80.1426 429.299 74.5045" stroke="#DDDDDD" stroke-linecap="round" stroke-linejoin="round"/>
<path d="M423.687 109.722C422.867 111.11 422.159 112.56 421.57 114.061C421.125 115.198 420.591 116.298 419.972 117.349C417.755 121.078 414.789 122.568 409.547 120.428C404.304 118.289 403.255 115.14 404.284 110.932C404.573 109.742 404.961 108.578 405.442 107.453C406.063 105.97 406.574 104.443 406.97 102.885C412.075 106.173 417.742 108.491 423.687 109.722V109.722Z" fill="#F9F9F9" stroke="#DDDDDD" stroke-linecap="round" stroke-linejoin="round"/>
<path d="M423.687 109.722C422.951 110.963 422.313 112.26 421.78 113.601C421.7 113.751 421.64 113.911 421.57 114.061C421.126 115.198 420.591 116.298 419.972 117.349C417.825 117.829 415.069 117.429 411.394 115.92C407.719 114.41 405.473 112.771 404.284 110.922C404.574 109.732 404.961 108.568 405.443 107.443L405.622 106.973C406.168 105.64 406.618 104.271 406.97 102.875C412.075 106.167 417.742 108.488 423.687 109.722Z" fill="#F9F9F9" stroke="#DDDDDD" stroke-linecap="round" stroke-linejoin="round"/>
<path d="M423.687 109.722C422.95 110.963 422.313 112.26 421.779 113.601C416.002 112.513 410.505 110.261 405.622 106.983C406.168 105.65 406.618 104.281 406.97 102.885C412.075 106.173 417.742 108.491 423.687 109.722V109.722Z" fill="#F9F9F9" stroke="#DDDDDD" stroke-linecap="round" stroke-linejoin="round"/>
<path d="M438.007 54.2715L442.391 43.5253" stroke="#DDDDDD" stroke-width="2" stroke-linecap="round" stroke-linejoin="round"/>
<path d="M455.043 70.7663L465.598 69.2463" stroke="#DDDDDD" stroke-width="2" stroke-linecap="round" stroke-linejoin="round"/>
<path d="M408.069 56.1209L398.632 45.9944" stroke="#DDDDDD" stroke-width="2" stroke-linecap="round" stroke-linejoin="round"/>
<path d="M423.158 51.8723V44.7347" stroke="#DDDDDD" stroke-linecap="round" stroke-linejoin="round"/>
<path d="M398.602 73.1448L390.683 74.2848" stroke="#DDDDDD" stroke-linecap="round" stroke-linejoin="round"/>
<path d="M450.969 92.908L453.885 97.9162" stroke="#DDDDDD" stroke-linecap="round" stroke-linejoin="round"/>
<path d="M448.912 62.4196L454.614 59.7096" stroke="#DDDDDD" stroke-linecap="round" stroke-linejoin="round"/>
<path d="M49.8113 110.022H26.4241C24.4085 118.844 24.9842 128.061 28.0818 136.563L52.5974 136.173C52.5974 136.173 45.9867 121.798 49.8113 110.022Z" fill="#DDDDDD" stroke="#DDDDDD" stroke-miterlimit="10"/>
<path d="M44.539 116.64H32.6357" stroke="#F9F9F9" stroke-linecap="round" stroke-linejoin="round"/>
<path d="M43.7801 121.808H34.7827" stroke="#F9F9F9" stroke-linecap="round" stroke-linejoin="round"/>
<path d="M44.3592 126.736H31.8867" stroke="#F9F9F9" stroke-linecap="round" stroke-linejoin="round"/>
<path d="M32.0363 70.9156H54.5447C56.3024 78.8229 54.8973 87.1047 50.6302 93.9876L26.2744 92.988C26.2744 92.988 33.704 82.3117 32.0363 70.9156Z" stroke="#DDDDDD" stroke-linecap="round" stroke-linejoin="round"/>
<path d="M36.1509 76.3038H50.8503" stroke="#DDDDDD" stroke-linecap="round" stroke-linejoin="round"/>
<path d="M36.3604 81.2421H48.0939" stroke="#DDDDDD" stroke-linecap="round" stroke-linejoin="round"/>
<path d="M36.1509 87.6998H41.6931" stroke="#DDDDDD" stroke-linecap="round" stroke-linejoin="round"/>
<path d="M42.9507 87.6998H46.6355" stroke="#DDDDDD" stroke-linecap="round" stroke-linejoin="round"/>
<path d="M87.4886 144.85L110.007 144.9C111.774 152.799 110.383 161.076 106.132 167.962L81.7866 166.962C81.7866 166.962 89.1563 156.226 87.4886 144.85Z" stroke="#DDDDDD" stroke-linecap="round" stroke-linejoin="round"/>
<path d="M91.603 150.248H106.302" stroke="#DDDDDD" stroke-linecap="round" stroke-linejoin="round"/>
<path d="M91.8125 155.176H103.546" stroke="#DDDDDD" stroke-linecap="round" stroke-linejoin="round"/>
<path d="M91.603 161.634H97.1453" stroke="#DDDDDD" stroke-linecap="round" stroke-linejoin="round"/>
<path d="M98.4033 161.634H102.088" stroke="#DDDDDD" stroke-linecap="round" stroke-linejoin="round"/>
<path d="M274.895 156.406H297.404C299.159 164.31 297.754 172.588 293.489 179.468L269.133 178.468C269.133 178.468 276.553 167.782 274.895 156.406Z" stroke="#DDDDDD" stroke-linecap="round" stroke-linejoin="round"/>
<path d="M279 161.804H293.699" stroke="#DDDDDD" stroke-linecap="round" stroke-linejoin="round"/>
<path d="M279.209 166.732H290.943" stroke="#DDDDDD" stroke-linecap="round" stroke-linejoin="round"/>
<path d="M279 173.19H284.542" stroke="#DDDDDD" stroke-linecap="round" stroke-linejoin="round"/>
<path d="M285.8 173.19H289.485" stroke="#DDDDDD" stroke-linecap="round" stroke-linejoin="round"/>
<path d="M350.789 68.7865L328.281 68.8365C326.526 76.7405 327.931 85.0183 332.195 91.8985L356.551 90.8988C356.551 90.8988 349.141 80.1625 350.789 68.7865Z" stroke="#DDDDDD" stroke-linecap="round" stroke-linejoin="round"/>
<path d="M346.695 74.1846H331.996" stroke="#DDDDDD" stroke-linecap="round" stroke-linejoin="round"/>
<path d="M346.485 79.1127H334.762" stroke="#DDDDDD" stroke-linecap="round" stroke-linejoin="round"/>
<path d="M346.695 85.5707H341.152" stroke="#DDDDDD" stroke-linecap="round" stroke-linejoin="round"/>
<path d="M339.895 85.5707H336.21" stroke="#DDDDDD" stroke-linecap="round" stroke-linejoin="round"/>
<path d="M202.986 40.7662V276.694" stroke="#DDDDDD" stroke-linecap="round" stroke-linejoin="round"/>
<path d="M364.915 199.952C364.02 199.473 363.1 199.04 362.16 198.654C359.844 197.674 357.423 196.964 354.945 196.537C346.086 194.969 336.967 197.036 327.407 201.181C318.729 204.936 309.69 210.408 300.16 216.43C299.976 214.943 299.882 213.445 299.88 211.946C299.88 192.902 314.911 177.452 333.44 177.452C340.372 177.517 347.116 179.713 352.749 183.74C358.383 187.767 362.632 193.429 364.915 199.952V199.952Z" fill="#A7CAF0"/>
<path d="M355.375 207.942C354.844 213.424 352.57 226.147 349.423 242.286C348.912 244.932 348.421 247.669 347.81 250.475C340.054 289.543 328.519 343.081 323.569 365.96H188.157L198.238 308.098C198.238 308.098 164.458 300.528 157.613 287.785C148.785 271.347 153.605 258.754 163.826 241.517C171.242 228.974 186.053 200.462 197.587 182.476C201.916 175.715 205.784 170.492 208.61 168.065C223.551 155.532 238.973 160.415 253.132 164.071C253.132 164.071 253.132 167.066 253.293 171.93C253.383 175.875 253.513 181.058 253.694 186.91C254.004 197.206 254.475 209.6 255.147 221.024C255.267 223.022 255.387 225.019 255.517 227.016C256.519 241.467 257.802 253.321 259.586 255.658C260.037 256.247 260.718 256.087 261.59 255.308C264.125 252.992 268.264 245.262 272.873 235.385C274.266 232.389 275.689 229.263 277.132 226.008C284.969 208.271 293.166 187.449 296.944 177.812C298.136 174.756 298.878 172.819 299.008 172.469C299.006 172.449 299.006 172.429 299.008 172.409L301.754 172.779L307.666 173.588C312.807 174.287 319.841 175.266 327.708 176.414C329.712 176.704 331.586 177.043 333.45 177.483C342.318 179.54 349.894 183.475 353.441 191.704C354.114 193.268 354.621 194.898 354.955 196.567C355.665 200.316 355.807 204.151 355.375 207.942Z" fill="#A7CAF0"/>
<path d="M354.944 196.577C346.086 195.009 336.967 197.076 327.407 201.221C318.729 204.976 309.69 210.448 300.16 216.47L297.154 218.378C289.909 222.981 283.215 225.318 277.112 226.017C287.434 202.669 298.387 173.987 298.998 172.479C298.996 172.459 298.996 172.439 298.998 172.419L307.656 173.597C312.797 174.297 319.831 175.275 327.698 176.424C329.702 176.713 331.576 177.053 333.44 177.492C342.308 179.55 349.884 183.484 353.431 191.713C354.104 193.278 354.611 194.908 354.944 196.577V196.577Z" fill="#A7CAF0"/>
<path d="M198.238 308.138C211.536 311.673 238.832 318.074 238.832 318.074" stroke="#83ADDF" stroke-width="0.75" stroke-linecap="round" stroke-linejoin="round"/>
<path d="M213.88 215.382L207.196 260.871C197.737 256.337 193.548 255.068 189.439 255.638C188.788 246.7 208.96 254.939 204.881 236.903C202.396 225.917 207.387 217.928 213.88 215.382Z" fill="#83ADDF"/>
<path d="M207.196 260.871L213.88 215.382L214.973 207.932" stroke="#83ADDF" stroke-width="0.75" stroke-linecap="round" stroke-linejoin="round"/>
<path d="M184.489 256.996C193.598 253.68 195.873 254.999 226.797 270.728" stroke="#83ADDF" stroke-width="0.75" stroke-linecap="round" stroke-linejoin="round"/>
<path d="M253.132 164.11C253.132 164.11 253.623 195.069 255.136 221.034C244.624 214.712 237.69 204.057 234.804 197.476C230.535 187.779 222.438 175.844 197.566 182.496C201.895 175.735 205.763 170.512 208.589 168.085C223.551 155.572 238.973 160.455 253.132 164.11Z" fill="#A7CAF0"/>
<path d="M307.035 202.349C306.213 203.488 288.446 214.043 288.777 215.512C289.107 216.98 292.033 222.982 292.033 224.12C292.033 224.839 281.111 238.391 272.272 247.449C267.172 252.702 262.762 256.437 261.58 255.318C258.864 252.742 282.955 190.715 290.711 170.991L299.018 172.419L307.676 173.598C306.935 187.839 307.756 201.35 307.035 202.349Z" fill="#83ADDF"/>
<path d="M299.018 172.419C299.016 172.439 299.016 172.459 299.018 172.479C298.507 174.477 285.881 223.481 272.292 247.449C268.043 254.959 263.704 260.012 259.606 260.432C242.159 262.079 253.152 164.15 253.152 164.15C259.626 165.598 279.367 169.064 290.731 171.031L299.018 172.419Z" fill="white"/>
<path d="M295.741 168.105C293.827 173.787 276.511 186.201 265.889 180.219C259.766 176.763 258.644 170.412 260.247 159.916C261.019 154.773 262.462 148.631 264.256 141.351C265.168 137.706 266.18 133.781 267.262 129.557C269.837 119.39 275.84 113.039 286.763 114.926C297.685 116.814 297.094 127.429 296.784 138.894C296.473 150.359 297.655 162.433 295.741 168.105Z" fill="#FEBBBA"/>
<path d="M281.802 139.533C280.98 150.189 276.27 161.773 260.247 159.916C261.019 154.773 262.462 148.631 264.255 141.351L281.802 139.533Z" fill="#FFA3A1"/>
<path d="M261.58 178.082C262.031 188.468 262.141 191.713 263.153 192.263C264.165 192.812 268.754 194.05 269.987 193.261C271.22 192.472 278.264 180.898 278.264 180.898C278.264 180.898 269.877 175.176 261.58 178.082Z" fill="#683F1D"/>
<path d="M269.326 188.338C270.779 206.364 273.845 249.257 274.286 252.592C274.727 255.928 261.009 270.039 259.626 268.291C258.243 266.543 251.238 253.671 251.238 249.856C251.238 246.041 263.925 187.609 263.925 187.609L269.326 188.338Z" fill="#683F1D"/>
<path d="M269.075 176.034C276.751 175.245 294.378 164.29 296.673 162.812C298.968 161.334 302.024 171.46 301.764 173.458C301.503 175.455 279.156 190.195 279.156 190.195C279.156 190.195 273.605 179 268.685 178.871C263.764 178.741 256.399 190.195 256.399 190.195C247.06 181.817 253.273 167.396 259.666 165.079C259.666 165.079 265.969 176.354 269.075 176.034Z" fill="#FED81D"/>
<path d="M249.625 326.853L242.771 366" stroke="#83ADDF" stroke-width="0.75" stroke-linecap="round" stroke-linejoin="round"/>
<path d="M306.143 98.9373C304.898 100.791 303.201 102.3 301.212 103.323C299.223 104.347 297.007 104.851 294.769 104.789C286.753 104.66 279.057 98.3281 279.057 98.3281C279.057 98.3281 272.042 91.2376 272.803 84.946C273.037 83.1414 273.933 81.4871 275.319 80.3022C281.331 74.9094 290.711 79.9327 294.168 85.705C297.625 91.4773 298.667 91.4373 302.636 91.4872C306.083 91.5272 307.596 95.4419 306.143 98.9373Z" fill="#683F1D"/>
<path d="M294.769 104.789C286.753 104.66 279.057 98.3281 279.057 98.3281C279.057 98.3281 272.042 91.2375 272.803 84.946C280.67 83.0884 290.24 85.2855 296.262 91.3973C301.062 96.2708 298.026 101.414 294.769 104.789Z" fill="#683F1D"/>
<path d="M283.575 93.4846C278.785 87.3428 279.627 80.3322 284.708 78.5046" stroke="#7F542D" stroke-width="0.75" stroke-linecap="round" stroke-linejoin="round"/>
<path d="M289.959 97.0897C285.169 90.9579 286.011 83.9373 291.092 82.1097" stroke="#7F542D" stroke-width="0.75" stroke-linecap="round" stroke-linejoin="round"/>
<path d="M300.852 112C299.61 114.744 298.204 117.412 296.643 119.989C294.521 123.593 292.087 127.005 289.368 130.186C284.357 135.958 277.824 141.021 270.218 141.67C251.96 143.228 252.812 130.375 253.393 126.48C253.393 126.391 253.393 126.311 253.393 126.231C253.393 126.151 257.351 118.112 261.75 110.112C263.955 105.989 266.383 101.988 269.025 98.1284C274.888 89.9793 282.974 88.3015 290.971 91.667C298.968 95.0325 299.87 99.8661 300.852 112Z" fill="#FEBBBA"/>
<path d="M296.643 120.059C294.518 123.639 292.084 127.027 289.368 130.185H288.847C287.331 130.188 285.846 129.767 284.558 128.972C283.27 128.176 282.231 127.037 281.559 125.683C280.887 124.33 280.608 122.816 280.755 121.313C280.902 119.81 281.468 118.377 282.389 117.178C283.31 115.979 284.55 115.061 285.968 114.528C287.386 113.995 288.925 113.868 290.411 114.161C291.898 114.455 293.272 115.157 294.379 116.189C295.485 117.221 296.28 118.54 296.673 119.999L296.643 120.059Z" fill="#FFA3A1"/>
<path d="M264.576 116.923C264.576 119.488 263.555 121.948 261.736 123.762C259.917 125.577 257.45 126.598 254.876 126.6C254.369 126.601 253.863 126.561 253.363 126.48C253.363 126.391 253.363 126.311 253.363 126.231C253.363 126.151 257.321 118.112 261.72 110.112C263.541 111.916 264.568 114.365 264.576 116.923V116.923Z" fill="#FFA3A1"/>
<path d="M303.227 120.548L300.491 123.055C296.022 127.249 295.06 128.288 295.06 128.288C292.565 122.056 291.983 111.59 296.703 103.871C301.423 96.1509 307.035 95.8813 309.991 98.2681C310.284 98.5027 310.52 98.7995 310.682 99.137C312.817 103.082 309.921 114.357 303.227 120.548Z" fill="#683F1D"/>
<path d="M310.682 99.167C305.171 100.685 300.521 109.683 300.491 123.085C296.022 127.279 295.06 128.318 295.06 128.318C292.565 122.086 291.983 111.62 296.703 103.901C301.423 96.181 307.035 95.9113 309.991 98.2981C310.284 98.5327 310.52 98.8296 310.682 99.167V99.167Z" fill="#683F1D"/>
<path d="M291.522 131.044C294.829 135.628 305.381 133.042 306.063 126.321C306.744 119.6 300.762 115.964 295.461 118.99C290.159 122.016 290.53 129.676 291.522 131.044Z" fill="#FEBBBA"/>
<path d="M302.275 98.0884C303.277 103.471 307.656 107.815 310.412 108.554" stroke="#7F542D" stroke-width="0.75" stroke-linecap="round" stroke-linejoin="round"/>
<path d="M297.655 102.473C298.657 107.266 302.125 113.608 308.829 113.158" stroke="#7F542D" stroke-width="0.75" stroke-linecap="round" stroke-linejoin="round"/>
<path d="M269.226 105.468C269.226 105.747 269.309 106.019 269.464 106.251C269.619 106.482 269.84 106.663 270.098 106.769C270.356 106.876 270.641 106.904 270.915 106.849C271.189 106.795 271.44 106.661 271.638 106.464C271.836 106.267 271.97 106.016 272.025 105.743C272.079 105.47 272.051 105.187 271.944 104.93C271.837 104.672 271.656 104.452 271.424 104.298C271.192 104.143 270.918 104.06 270.639 104.06C270.264 104.06 269.905 104.209 269.64 104.473C269.375 104.737 269.226 105.095 269.226 105.468V105.468Z" fill="#683F1D"/>
<path d="M280.038 110.642C280.819 110.642 281.451 110.011 281.451 109.233C281.451 108.456 280.819 107.825 280.038 107.825C279.258 107.825 278.625 108.456 278.625 109.233C278.625 110.011 279.258 110.642 280.038 110.642Z" fill="#683F1D"/>
<path d="M296.262 121.407C296.362 122.945 292.043 128.558 291.673 130.305C290.38 136.477 290.31 139.553 283.415 144.117C275.86 149.11 261.369 153.594 254.054 147.822C251.218 145.595 249.645 141.301 249.645 136.277C249.721 132.384 250.574 128.544 252.156 124.983C253.737 121.421 256.014 118.21 258.854 115.535C257.959 118.805 256.862 122.017 255.567 125.152C257.027 123.186 258.603 121.309 260.287 119.53C262.276 118.601 264.468 118.185 266.661 118.321C267.913 118.661 275.258 121.697 275.549 123.085C275.84 124.473 274.677 129.247 276.22 129.586C277.764 129.926 284.528 129.197 286.241 128.098C287.955 127 292.575 119.769 293.005 118.661C293.276 117.972 294.418 118.601 295.27 119.55C295.786 120.051 296.133 120.701 296.262 121.407V121.407Z" fill="#683F1D"/>
<path d="M301.924 125.641C300.21 121.647 295.821 121.767 293.426 124.962" stroke="#FFA3A1" stroke-width="0.75" stroke-linecap="round" stroke-linejoin="round"/>
<path d="M294.579 123.774C299.308 122.606 301.393 129.576 295.08 129.566" stroke="#FFA3A1" stroke-width="0.75" stroke-linecap="round" stroke-linejoin="round"/>
<path d="M267.943 97.8488C267.593 99.8461 276.842 101.554 276.962 98.5678C277.082 95.5818 268.324 95.7216 267.943 97.8488Z" fill="#683F1D"/>
<path d="M290.731 101.983C290.661 103.981 281.261 103.821 281.712 100.865C282.163 97.9086 290.811 99.836 290.731 101.983Z" fill="#683F1D"/>
<path d="M267.752 123.644C273.484 124.563 276.02 123.644 277.513 121.227" stroke="#914839" stroke-width="0.75" stroke-linecap="round" stroke-linejoin="round"/>
<path d="M266.42 114.936C268.324 111.071 270.849 109.673 273.344 109.393C274.526 109.23 275.625 108.697 276.484 107.871C277.343 107.046 277.917 105.97 278.124 104.799" stroke="#914839" stroke-width="0.75" stroke-linecap="round" stroke-linejoin="round"/>
<path d="M296.262 121.407C296.362 122.945 292.043 128.558 291.673 130.305C290.38 136.477 290.31 139.553 283.415 144.117C275.86 149.11 261.369 153.594 254.054 147.822C251.218 145.595 249.645 141.301 249.645 136.277C257.662 143.128 269.416 143.857 276.631 141.8C286.812 138.884 293.035 125.392 295.29 119.55C295.799 120.054 296.138 120.703 296.262 121.407V121.407Z" fill="#683F1D"/>
<path d="M250.908 128.318C261.5 137.306 276.09 130.195 276.962 129.566" stroke="#7F542D" stroke-width="0.75" stroke-linecap="round" stroke-linejoin="round"/>
<path d="M249.705 137.875C258.523 142.489 272.463 143.767 282.894 129.117" stroke="#7F542D" stroke-width="0.75" stroke-linecap="round" stroke-linejoin="round"/>
<path d="M260.668 150.388C262.843 147.273 268.554 145.914 274.547 144.257C286.211 141.011 288.005 136.197 289.137 124.803" stroke="#7F542D" stroke-width="0.75" stroke-linecap="round" stroke-linejoin="round"/>
<path d="M295.951 310.175C295.948 312.308 295.476 314.414 294.568 316.346C293.415 318.77 291.767 320.927 289.728 322.678C284.337 327.452 275.94 330.517 266.5 330.517C261.2 330.559 255.946 329.54 251.048 327.521C246.437 325.708 242.464 322.582 239.624 318.533C237.961 316.063 237.062 313.16 237.039 310.185C237.038 309.33 237.119 308.477 237.279 307.638C238.492 300.877 244.514 295.145 252.922 292.129C257.281 290.59 261.875 289.813 266.5 289.832C272.542 289.787 278.511 291.155 283.926 293.827C286.255 294.981 288.402 296.468 290.3 298.241C293.857 301.556 295.951 305.691 295.951 310.175Z" fill="#A7CAF0"/>
<path d="M294.569 316.346C293.416 318.77 291.767 320.927 289.728 322.678C284.337 327.452 275.94 330.517 266.5 330.517C261.2 330.559 255.946 329.54 251.048 327.521C246.437 325.708 242.464 322.582 239.624 318.534C260.648 323.996 283.355 319.392 294.569 316.346Z" fill="#83ADDF"/>
<path d="M361.157 231.62C356.628 239.01 341.266 259.503 326.145 279.066C313.388 295.554 300.802 311.373 295.03 318.094C293.493 319.868 291.708 321.412 289.729 322.678C286.172 324.923 282.199 326.434 278.045 327.12C273.891 327.806 269.642 327.654 265.548 326.673C259.696 325.205 254.625 321.859 251.86 316.556C250.661 314.23 249.932 311.692 249.715 309.086C249.274 304.333 250.467 298.55 252.922 292.109C257.562 279.985 266.671 265.595 277.623 251.513C278.966 249.786 280.349 248.058 281.742 246.34C283.886 243.677 286.084 241.067 288.336 238.511C289.117 237.602 289.899 236.713 290.701 235.814C291.322 235.115 291.943 234.416 292.575 233.727L294.729 231.36L294.849 231.23L297.044 228.884C298.537 227.296 300.05 225.728 301.543 224.2L303.547 222.203C304.279 221.464 305.02 220.725 305.762 220.005C305.793 219.97 305.826 219.936 305.862 219.906C307.426 218.368 308.985 216.876 310.542 215.432L310.752 215.242C316.026 210.281 321.569 205.614 327.357 201.261V201.261C333.47 196.747 338.991 193.481 343.461 191.913C350.996 189.277 357.891 192.472 362.109 198.734C367.531 206.633 368.583 219.516 361.157 231.62Z" fill="#A7CAF0"/>
<path d="M342.799 257.246C337.608 264.146 331.866 271.676 326.144 279.066C313.388 295.554 300.802 311.373 295.03 318.094C293.493 319.868 291.708 321.412 289.729 322.678" stroke="#83ADDF" stroke-width="0.75" stroke-linecap="round" stroke-linejoin="round"/>
<path d="M252.922 292.119C257.562 279.995 266.671 265.604 277.623 251.523C287.662 238.651 298.685 226.571 310.592 215.392" stroke="#83ADDF" stroke-width="0.75" stroke-linecap="round" stroke-linejoin="round"/>
<path d="M325.643 211.996C320.372 209 315.181 210.119 305.771 219.986" stroke="#83ADDF" stroke-width="0.75" stroke-linecap="round" stroke-linejoin="round"/>
<path d="M362.16 198.694C359.844 197.714 357.423 197.004 354.945 196.577C346.086 195.009 336.967 197.076 327.407 201.221C333.52 196.707 339.041 193.441 343.511 191.873C351.047 189.237 357.941 192.432 362.16 198.694Z" fill="#A7CAF0"/>
<path d="M326.144 279.066C313.388 295.554 300.801 311.373 295.029 318.094C293.493 319.868 291.707 321.412 289.728 322.678C286.171 324.923 282.198 326.434 278.045 327.12C273.891 327.806 269.641 327.654 265.548 326.673C259.696 325.205 254.625 321.859 251.859 316.556C261.259 320.201 270.598 320.211 277.272 316.856C280.989 315.061 283.911 311.964 285.479 308.158C286.872 304.73 288.482 301.394 290.299 298.171C301.162 279.116 316.013 272.166 326.144 279.066Z" fill="#83ADDF"/>
<path d="M218.781 197.295C218.3 194.609 227.349 191.743 234.384 190.944L235.706 202.798C235.706 202.798 220.445 206.623 218.781 197.295Z" fill="#83ADDF"/>
<path d="M232.92 190.195C229.263 176.583 229.173 154.553 230.425 151.437C231.678 148.321 234.203 149.49 235.706 149.579C237.209 149.669 237.911 145.665 242.991 145.665C242.991 145.665 243.272 140.611 246.789 140.032C246.789 140.032 245.447 132.672 251.369 133.85C252.712 134.12 251.369 142.289 254.776 153.824C254.966 154.473 262.141 149.35 263.795 148.181C266.45 146.274 271.591 145.645 268.244 151.247C266.24 154.653 262.903 160.035 260.578 163.411C255.959 170.309 253.565 178.448 253.714 186.74L232.92 190.195Z" fill="#FEBBBA"/>
<path d="M229.734 158.128C229.684 155.878 229.916 153.63 230.425 151.437C231.668 148.331 234.203 149.49 235.706 149.579C237.209 149.669 237.911 145.665 242.991 145.665C242.991 145.665 243.272 140.611 246.789 140.032C246.789 140.032 245.447 132.672 251.369 133.85C252.712 134.12 251.369 142.289 254.776 153.824C254.966 154.473 262.141 149.35 263.795 148.181C266.45 146.274 271.591 145.645 268.244 151.247C267.242 152.945 265.889 155.142 264.516 157.339" stroke="#FFA3A1" stroke-width="0.75" stroke-linecap="round" stroke-linejoin="round"/>
<path d="M242.991 145.665C242.971 146.603 243.028 147.542 243.162 148.471" stroke="#FFA3A1" stroke-width="0.75" stroke-linecap="round" stroke-linejoin="round"/>
<path d="M246.789 140.032C247.22 142.499 247.851 144.786 247.851 144.786" stroke="#FFA3A1" stroke-width="0.75" stroke-linecap="round" stroke-linejoin="round"/>
<path d="M226.487 184.573L228.081 206.943C228.081 206.943 257.271 201.949 256.831 201.3C256.39 200.651 255.628 182.326 255.628 182.326L226.487 184.573Z" fill="white"/>
<path d="M283.766 293.826C283.766 294.406 283.736 294.985 283.676 295.564C283.676 296.004 283.616 296.443 283.576 296.882C283.581 296.969 283.581 297.056 283.576 297.142C283.576 297.641 283.476 298.141 283.416 298.62C283.285 299.739 283.115 300.847 282.905 301.936C281.993 307.26 280.031 312.351 277.133 316.916C274.37 321.346 270.263 324.784 265.408 326.732C260.813 328.412 255.825 328.718 251.058 327.611H250.908C241.308 325.544 235.576 314.888 232.049 302.705C228.832 291.569 227.449 279.156 226.657 270.837C224.974 253.361 218.641 197.395 218.641 197.395C223.12 199.632 263.204 190.305 263.204 190.305C263.204 190.305 271.441 222.861 277.493 251.633C280.74 267.062 283.366 281.413 283.746 289.063C283.796 290.571 283.816 292.179 283.766 293.826Z" fill="#A7CAF0"/>
<path d="M232.029 302.595C228.812 291.46 227.429 279.046 226.637 270.727C224.954 253.251 218.621 197.286 218.621 197.286" stroke="#83ADDF" stroke-width="0.75" stroke-linecap="round" stroke-linejoin="round"/>
<path d="M263.173 190.195C263.173 190.195 271.411 222.751 277.463 251.523C280.71 266.952 283.335 281.303 283.716 288.953C283.796 290.571 283.816 292.179 283.716 293.776C283.619 296.695 283.284 299.601 282.714 302.465" stroke="#83ADDF" stroke-width="0.75" stroke-linecap="round" stroke-linejoin="round"/>
<path d="M277.112 316.796C274.349 321.226 270.243 324.664 265.388 326.613C260.793 328.292 255.805 328.598 251.038 327.491H250.888C241.288 325.424 235.556 314.768 232.028 302.585C233.61 304.362 235.31 306.031 237.119 307.578C241.428 311.363 246.36 314.376 251.699 316.486C261.099 320.181 270.438 320.191 277.112 316.796Z" fill="#83ADDF"/>
</svg>
