<svg width="29" height="38" viewBox="0 0 29 38" fill="none" xmlns="http://www.w3.org/2000/svg">
    <path
        d="M26.8339 36.9066L26.8323 36.9055L15.2083 28.5365L14.624 28.1158L14.0397 28.5365L2.41658 36.9048C2.4165 36.9049 2.41641 36.905 2.41632 36.905C2.26147 37.0161 2.06093 37.0301 1.89543 36.9452L1.89474 36.9449C1.72981 36.8604 1.624 36.6888 1.624 36.5V6.5C1.624 3.46828 4.09229 1 7.124 1H14.624H22.124C25.1557 1 27.624 3.46828 27.624 6.5V36.5C27.624 36.6884 27.5186 36.8598 27.3532 36.9444C27.2784 36.9823 27.2003 37 27.124 37C27.0201 37 26.9192 36.9683 26.8339 36.9066Z"
        stroke="#3975EA" stroke-width="2" />
</svg>