<svg width="20" height="20" viewBox="0 0 20 20" fill="none" xmlns="http://www.w3.org/2000/svg">
    <path
        d="M1.07331 1.24249L1.07311 1.24231L1.0687 1.24825C0.818845 1.58499 0.846507 2.06271 1.15188 2.36809L1.15189 2.36809L8.78373 9.99927L1.15188 17.6319C0.816038 17.9678 0.816038 18.5123 1.15188 18.8481C1.48773 19.184 2.03224 19.184 2.36809 18.8481L2.29738 18.7774L2.3681 18.8481L9.99927 11.2158L17.6319 18.8481L17.6317 18.8483L17.6373 18.8531L17.7225 18.9267L17.7223 18.9269L17.7283 18.9313C18.065 19.1812 18.5427 19.1535 18.8481 18.8481L18.8483 18.8483L18.8531 18.8428L18.9267 18.7575L18.9269 18.7577L18.9313 18.7518C19.1812 18.415 19.1535 17.9373 18.8481 17.6319L11.2158 9.99927L18.8481 2.3681L18.7774 2.29738L18.8481 2.36809C19.184 2.03224 19.184 1.48773 18.8481 1.15188C18.5123 0.816038 17.9678 0.816038 17.6319 1.15188L9.99927 8.78373L2.36809 1.15189L2.36828 1.1517L2.36273 1.1469L2.27749 1.07331L2.27767 1.07311L2.27173 1.0687C1.93498 0.818845 1.45726 0.846507 1.15188 1.15188L1.15169 1.15169L1.1469 1.15725L1.07331 1.24249Z"
        fill="white" stroke="white" strokeWidth=".2" />
</svg>