<svg width="10" height="10" viewBox="0 0 20 20" fill="none" xmlns="http://www.w3.org/2000/svg">
    <path
        d="M6.14286 7.42857V6.92857C5.86671 6.92857 5.64286 7.15243 5.64286 7.42857H6.14286ZM6.14286 8.71429L6.49641 9.06784L6.64286 8.92139V8.71429H6.14286ZM3.94801 9.09086L3.59445 9.44442H3.59445L3.94801 9.09086ZM8.71429 17.0714H9.21429V16.8643L9.06784 16.7179L8.71429 17.0714ZM7.42857 15.7857H6.92857V15.9928L7.07502 16.1393L7.42857 15.7857ZM7.42857 13.8571H7.92857V13.65L7.78212 13.5036L7.42857 13.8571ZM6.14286 12.5714H5.64286V12.7785L5.7893 12.925L6.14286 12.5714ZM6.14286 11.2857V10.7857C5.86671 10.7857 5.64286 11.0096 5.64286 11.2857H6.14286ZM12.0714 1V3.57143H13.0714V1H12.0714ZM11.2857 4.35714H10V5.35714H11.2857V4.35714ZM7.42857 6.92857H6.14286V7.92857H7.42857V6.92857ZM5.64286 7.42857V8.71429H6.64286V7.42857H5.64286ZM5.7893 8.36073L5.41273 8.73731L6.11983 9.44442L6.49641 9.06784L5.7893 8.36073ZM4.30156 8.73731L1.99641 6.43216L1.2893 7.13927L3.59445 9.44442L4.30156 8.73731ZM8.21429 6.14286C8.21429 6.5768 7.86251 6.92857 7.42857 6.92857V7.92857C8.41479 7.92857 9.21429 7.12908 9.21429 6.14286H8.21429ZM10 4.35714C9.01378 4.35714 8.21429 5.15663 8.21429 6.14286H9.21429C9.21429 5.70892 9.56606 5.35714 10 5.35714V4.35714ZM5.41273 8.73731C5.10589 9.04415 4.6084 9.04415 4.30156 8.73731L3.59445 9.44442C4.29182 10.1418 5.42247 10.1418 6.11983 9.44442L5.41273 8.73731ZM12.0714 3.57143C12.0714 4.00537 11.7197 4.35714 11.2857 4.35714V5.35714C12.2719 5.35714 13.0714 4.55765 13.0714 3.57143H12.0714ZM9.21429 19V17.0714H8.21429V19H9.21429ZM9.06784 16.7179L7.78212 15.4322L7.07502 16.1393L8.36073 17.425L9.06784 16.7179ZM7.92857 15.7857V13.8571H6.92857V15.7857H7.92857ZM7.78212 13.5036L6.49641 12.2179L5.7893 12.925L7.07502 14.2107L7.78212 13.5036ZM6.64286 12.5714V11.2857H5.64286V12.5714H6.64286ZM6.14286 11.7857H11.2857V10.7857H6.14286V11.7857ZM12.0714 12.5714V13.4286H13.0714V12.5714H12.0714ZM14.2857 15.6429H17.7143V14.6429H14.2857V15.6429ZM13.3571 14.7143C13.3571 15.2271 13.7729 15.6429 14.2857 15.6429V14.6429C14.3252 14.6429 14.3571 14.6748 14.3571 14.7143H13.3571ZM13 14.3571C13.1972 14.3571 13.3571 14.517 13.3571 14.7143H14.3571C14.3571 13.9648 13.7495 13.3571 13 13.3571V14.3571ZM12.0714 13.4286C12.0714 13.9414 12.4872 14.3571 13 14.3571V13.3571C13.0394 13.3571 13.0714 13.3891 13.0714 13.4286H12.0714ZM11.2857 11.7857C11.7197 11.7857 12.0714 12.1375 12.0714 12.5714H13.0714C13.0714 11.5852 12.2719 10.7857 11.2857 10.7857V11.7857ZM10 18.5C5.30558 18.5 1.5 14.6944 1.5 10H0.5C0.5 15.2467 4.7533 19.5 10 19.5V18.5ZM18.5 10C18.5 14.6944 14.6944 18.5 10 18.5V19.5C15.2467 19.5 19.5 15.2467 19.5 10H18.5ZM10 1.5C14.6944 1.5 18.5 5.30558 18.5 10H19.5C19.5 4.7533 15.2467 0.5 10 0.5V1.5ZM10 0.5C4.7533 0.5 0.5 4.7533 0.5 10H1.5C1.5 5.30558 5.30558 1.5 10 1.5V0.5Z"
        fill="#1D1929" />
</svg>