<svg width="16" height="16" viewBox="0 0 16 16" fill="none" xmlns="http://www.w3.org/2000/svg">
<path d="M4.79987 11.2001L4.35266 10.9765C4.25641 11.169 4.29414 11.4015 4.44632 11.5537C4.5985 11.7058 4.83098 11.7436 5.02348 11.6473L4.79987 11.2001ZM6.9332 6.93345L6.7096 6.48623C6.61283 6.53462 6.53437 6.61308 6.48599 6.70984L6.9332 6.93345ZM11.1999 4.80011L11.6471 5.02372C11.7433 4.83123 11.7056 4.59874 11.5534 4.44656C11.4012 4.29438 11.1688 4.25665 10.9763 4.3529L11.1999 4.80011ZM9.06654 9.06678L9.29014 9.51399C9.38691 9.46561 9.46537 9.38715 9.51375 9.29039L9.06654 9.06678ZM7.99987 14.9668C4.15229 14.9668 1.0332 11.8477 1.0332 8.00011H0.0332031C0.0332031 12.4 3.6 15.9668 7.99987 15.9668V14.9668ZM14.9665 8.00011C14.9665 11.8477 11.8475 14.9668 7.99987 14.9668V15.9668C12.3997 15.9668 15.9665 12.4 15.9665 8.00011H14.9665ZM7.99987 1.03345C11.8475 1.03345 14.9665 4.15253 14.9665 8.00011H15.9665C15.9665 3.60025 12.3997 0.0334473 7.99987 0.0334473V1.03345ZM7.99987 0.0334473C3.6 0.0334473 0.0332031 3.60025 0.0332031 8.00011H1.0332C1.0332 4.15253 4.15229 1.03345 7.99987 1.03345V0.0334473ZM5.24708 11.4237L7.38042 7.15705L6.48599 6.70984L4.35266 10.9765L5.24708 11.4237ZM7.15681 7.38066L11.4235 5.24733L10.9763 4.3529L6.7096 6.48623L7.15681 7.38066ZM10.7527 4.57651L8.61932 8.84317L9.51375 9.29039L11.6471 5.02372L10.7527 4.57651ZM8.84293 8.61957L4.57626 10.7529L5.02348 11.6473L9.29014 9.51399L8.84293 8.61957Z" fill="#373435"/>
</svg>
