<svg width="9" height="8" viewBox="0 0 9 8" fill="none" xmlns="http://www.w3.org/2000/svg">
<path d="M4.94172 4.00077L8.40823 0.53425C8.53027 0.412204 8.53027 0.214329 8.40823 0.0922979C8.28618 -0.0297331 8.0883 -0.0297487 7.96627 0.0922979L4.49975 3.55882L1.03324 0.0922979C0.911196 -0.0297487 0.713322 -0.0297487 0.591291 0.0922979C0.46926 0.214345 0.469244 0.412219 0.591291 0.53425L4.0578 4.00076L0.591291 7.46728C0.469244 7.58933 0.469244 7.78721 0.591291 7.90924C0.652306 7.97025 0.73229 8.00075 0.812275 8.00075C0.892259 8.00075 0.972227 7.97025 1.03326 7.90924L4.49975 4.44273L7.96626 7.90924C8.02727 7.97025 8.10726 8.00075 8.18724 8.00075C8.26723 8.00075 8.3472 7.97025 8.40823 7.90924C8.53027 7.78719 8.53027 7.58932 8.40823 7.46728L4.94172 4.00077Z" fill="black"/>
</svg>
