<svg width="16" height="16" viewBox="0 0 16 16" fill="none" xmlns="http://www.w3.org/2000/svg">
<path d="M12.2524 1.3634H3.66893C2.17796 1.3634 0.964966 2.57611 0.964966 4.06709V6.92317V12.6509C0.964966 14.1418 2.17796 15.3545 3.66893 15.3545H12.2527C13.7437 15.3545 14.9564 14.1418 14.9564 12.6509V6.92289V4.06681C14.9561 2.57583 13.7434 1.3634 12.2524 1.3634ZM13.028 2.97574L13.3373 2.97461V3.28251V5.34612L10.9737 5.35374L10.9655 2.98251L13.028 2.97574ZM5.96368 6.92289C6.41185 6.30285 7.13885 5.89617 7.96068 5.89617C8.78251 5.89617 9.50951 6.30285 9.95712 6.92289C10.2487 7.3276 10.4233 7.82261 10.4233 8.35884C10.4233 9.7166 9.3176 10.8212 7.9604 10.8212C6.60235 10.8212 5.49773 9.7166 5.49773 8.35884C5.49801 7.82261 5.67214 7.3276 5.96368 6.92289ZM13.593 12.6506C13.593 13.3903 12.9916 13.9911 12.2524 13.9911H3.66893C2.92951 13.9911 2.3281 13.3903 2.3281 12.6506V6.92289H4.41654C4.2362 7.36654 4.13488 7.85112 4.13488 8.35884C4.13488 10.4679 5.85079 12.1849 7.96068 12.1849C10.0703 12.1849 11.7862 10.4679 11.7862 8.35884C11.7862 7.85112 11.6843 7.36654 11.504 6.92289H13.593V12.6506Z" fill="#373435"/>
</svg>
