<svg width="32" height="32" viewBox="0 0 32 32" fill="none" xmlns="http://www.w3.org/2000/svg">
<path d="M24.5047 2.72681H7.33774C4.35579 2.72681 1.92981 5.15222 1.92981 8.13418V13.8463V25.3017C1.92981 28.2837 4.35579 30.7091 7.33774 30.7091H24.5053C27.4873 30.7091 29.9127 28.2837 29.9127 25.3017V13.8458V8.13361C29.9121 5.15166 27.4867 2.72681 24.5047 2.72681ZM26.0558 5.95147L26.6745 5.94922V6.56502V10.6922L21.9472 10.7075L21.9309 5.96502L26.0558 5.95147ZM11.9272 13.8458C12.8236 12.6057 14.2776 11.7923 15.9212 11.7923C17.5649 11.7923 19.0189 12.6057 19.9141 13.8458C20.4972 14.6552 20.8466 15.6452 20.8466 16.7177C20.8466 19.4332 18.6351 21.6424 15.9207 21.6424C13.2046 21.6424 10.9953 19.4332 10.9953 16.7177C10.9959 15.6452 11.3442 14.6552 11.9272 13.8458ZM27.1858 25.3012C27.1858 26.7806 25.983 27.9823 24.5047 27.9823H7.33774C5.8589 27.9823 4.65607 26.7806 4.65607 25.3012V13.8458H8.83295C8.47228 14.7331 8.26964 15.7022 8.26964 16.7177C8.26964 20.9358 11.7015 24.3698 15.9212 24.3698C20.1405 24.3698 23.5723 20.9358 23.5723 16.7177C23.5723 15.7022 23.3685 14.7331 23.0078 13.8458H27.1858V25.3012Z" fill="#3975EA"/>
</svg>
