<svg width="16" height="16" viewBox="0 0 16 16" fill="none" xmlns="http://www.w3.org/2000/svg">
<path fill-rule="evenodd" clip-rule="evenodd" d="M2.76563 4.29982H2.74446C1.68614 4.29982 1 3.57281 1 2.65126C1 1.71178 1.70643 1 2.78591 1C3.86451 1 4.52772 1.70998 4.54888 2.64857C4.54888 3.57011 3.86451 4.29982 2.76563 4.29982ZM16 15H12.6849V10.0784C12.6849 8.79027 12.1663 7.91089 11.0259 7.91089C10.1537 7.91089 9.66863 8.50432 9.44288 9.07622C9.3683 9.25704 9.36964 9.50054 9.37101 9.75143V9.75145V9.75156C9.3712 9.78545 9.37138 9.81946 9.37138 9.85348V15H6.0871C6.0871 15 6.12943 6.28199 6.0871 5.48955H9.37138V6.98217C9.56547 6.3295 10.615 5.39812 12.2897 5.39812C14.3675 5.39812 16 6.76613 16 9.71182V15ZM4.30208 5.48936H1.37848V14.9998H4.30208V5.48936Z" fill="#373435"/>
</svg>
