<svg width="14" height="14" viewBox="0 0 14 14" fill="none" xmlns="http://www.w3.org/2000/svg">
<path d="M2.75729 5.58579C2.95255 5.39053 3.26913 5.39053 3.4644 5.58579C3.63796 5.75936 3.65725 6.02878 3.52225 6.22365L3.4644 6.2929L2.05018 7.70711C0.878609 8.87868 0.878609 10.7782 2.05018 11.9498C3.17489 13.0745 4.97046 13.1194 6.14883 12.0847L6.29282 11.9498L7.70704 10.5355C7.9023 10.3403 8.21888 10.3403 8.41414 10.5355C8.58771 10.7091 8.60699 10.9785 8.472 11.1734L8.41414 11.2426L6.99993 12.6569C5.43783 14.219 2.90517 14.219 1.34308 12.6569C-0.166952 11.1468 -0.217286 8.72987 1.19207 7.15938L1.34308 7L2.75729 5.58579ZM6.99993 1.34315C8.56203 -0.218948 11.0947 -0.218948 12.6568 1.34315C14.1668 2.85318 14.2171 5.27014 12.8078 6.84063L12.6568 7L11.2426 8.41422C11.0473 8.60948 10.7307 8.60948 10.5355 8.41422C10.3619 8.24065 10.3426 7.97123 10.4776 7.77636L10.5355 7.70711L11.9497 6.2929C13.1213 5.12132 13.1212 3.22183 11.9497 2.05026C10.825 0.925546 9.0294 0.880558 7.85103 1.91529L7.70704 2.05026L6.29282 3.46447C6.09756 3.65973 5.78098 3.65973 5.58572 3.46447C5.41215 3.2909 5.39286 3.02148 5.52786 2.82661L5.58572 2.75736L6.99993 1.34315ZM3.81795 9.47488L9.4748 3.81802C9.67007 3.62276 9.98665 3.62276 10.1819 3.81802C10.3555 3.99159 10.3748 4.26101 10.2398 4.45588L10.1819 4.52513L4.52506 10.182C4.32979 10.3772 4.01321 10.3772 3.81795 10.182C3.64438 10.0084 3.6251 9.73899 3.76009 9.54412L3.81795 9.47488L9.4748 3.81802L3.81795 9.47488Z" fill="#3975EA"/>
</svg>
