<svg width="15" height="15" viewBox="0 0 15 15" fill="none" xmlns="http://www.w3.org/2000/svg">
<path d="M4.5 3.50017C4.5 1.8428 5.84327 0.5 7.5 0.5C9.15673 0.5 10.5 1.8428 10.5 3.50017C10.5 5.15754 9.15673 6.50034 7.5 6.50034C5.84327 6.50034 4.5 5.15754 4.5 3.50017ZM0.5 12.5012C0.5 12.1776 0.648989 11.8291 0.964724 11.4663C1.28003 11.104 1.7348 10.7602 2.26915 10.4615C3.34668 9.85911 4.63811 9.49961 5.5 9.49961H9.5C10.3619 9.49961 11.6533 9.85911 12.7308 10.4615C13.2652 10.7602 13.72 11.104 14.0353 11.4663C14.351 11.8291 14.5 12.1776 14.5 12.5012V14.5H0.5V12.5012Z" stroke="#373435" stroke-linecap="square"/>
</svg>
