<svg width="18" height="18" viewBox="0 0 18 18" fill="none" xmlns="http://www.w3.org/2000/svg">
<path d="M13.9348 5.25926L13.5853 5.09431L13.3376 5.39107L10.5735 8.70287L10.3261 8.99929L10.5504 9.31361L12.9963 12.7424L13.2704 13.1267L13.6698 12.8751C14.0549 12.6325 14.5104 12.4922 15 12.4922C16.38 12.4922 17.5 13.6114 17.5 14.9906C17.5 16.3698 16.38 17.489 15 17.489C13.62 17.489 12.5 16.3698 12.5 14.9906C12.5 14.4645 12.6624 13.9777 12.9398 13.5754L13.1389 13.2867L12.9352 13.0012L10.3018 9.30963L10.1523 9.1H9.8948H5.93874H5.53099L5.44897 9.49942C5.21537 10.637 4.20642 11.493 3 11.493C1.62001 11.493 0.5 10.3737 0.5 8.99452C0.5 7.61531 1.62001 6.49608 3 6.49608C4.20966 6.49608 5.22076 7.35667 5.45082 8.49874L5.53165 8.9H5.94098H9.91455H10.1485L10.2984 8.72038L13.1431 5.312L13.4194 4.98091L13.1325 4.65896C12.7387 4.21706 12.5 3.63604 12.5 2.99844C12.5 1.61923 13.62 0.5 15 0.5C16.38 0.5 17.5 1.61923 17.5 2.99844C17.5 4.37764 16.38 5.49687 15 5.49687C14.6182 5.49687 14.2575 5.41151 13.9348 5.25926Z" stroke="#373435" stroke-linecap="square"/>
</svg>
