<svg width="18" height="18" viewBox="0 0 18 18" fill="none" xmlns="http://www.w3.org/2000/svg">
<path d="M11.0201 1.09991L11.0204 1.10138L11.0211 1.10481L11.0213 1.10616L11.3441 2.70867L11.3948 2.96063L11.6292 3.06601C12.0541 3.25698 12.4507 3.49457 12.8201 3.76589L13.0304 3.92032L13.2774 3.83616L14.8854 3.28816L15.4519 3.10926L15.7511 3.63212L15.7511 3.63213L15.7537 3.63666L17.0556 5.85713L17.0583 5.86173L17.3644 6.3968L16.9101 6.80048L15.7023 7.84761L15.4919 8.03007L15.5363 8.30503C15.5729 8.5323 15.6031 8.767 15.6031 8.99996C15.6031 9.23294 15.5729 9.46768 15.5363 9.69497L15.4919 9.96992L15.7023 10.1524L16.9155 11.2043L17.3644 11.6032L17.0551 12.1437L17.0524 12.1483L15.7538 14.3631L15.7538 14.3631L15.7509 14.3681L15.4519 14.892L14.8735 14.7079L13.2774 14.1639L13.0304 14.0797L12.8201 14.2341C12.4507 14.5054 12.0541 14.743 11.6292 14.9339L11.3948 15.0393L11.3441 15.2913L11.0213 16.8938L11.0211 16.8952L11.0204 16.8986L11.0201 16.9L10.9029 17.5H7.09471L6.9786 16.8989L6.97776 16.8947L6.65383 15.2911L6.60297 15.0393L6.36869 14.934C5.94375 14.743 5.54712 14.5055 5.17762 14.2341L4.96733 14.0797L4.72038 14.1638L3.11305 14.7116L2.54574 14.8921L2.24818 14.3685L2.24822 14.3685L2.24471 14.3625L0.940433 12.1399L0.634724 11.6032L1.08791 11.1993L2.29584 10.152L2.50624 9.96959L2.46192 9.69467C2.42525 9.46718 2.39464 9.23181 2.39464 8.99996C2.39464 8.76813 2.42525 8.53279 2.46192 8.30534L2.50623 8.03042L2.29585 7.848L1.08189 6.79539L0.634733 6.39683L0.944304 5.85338L2.24486 3.63726L2.2449 3.63728L2.24808 3.6317L2.54572 3.10927L3.12471 3.2922L4.72033 3.83614L4.96731 3.92034L5.17762 3.76588C5.54712 3.49452 5.94376 3.25691 6.3687 3.06592L6.60298 2.96063L6.65383 2.70886L6.97777 1.10517L6.97779 1.10517L6.97859 1.10102L7.09471 0.5H10.9029L11.0201 1.09991ZM7.73166 9.00004C7.73166 8.27466 8.30791 7.70056 8.99874 7.70056C9.68957 7.70056 10.2658 8.27466 10.2658 9.00004C10.2658 9.72546 9.68953 10.2996 8.99874 10.2996C8.30795 10.2996 7.73166 9.72546 7.73166 9.00004ZM8.99874 5.49983C7.08849 5.49983 5.55361 7.07589 5.55361 9.00004C5.55361 10.9241 7.08845 12.5003 8.99874 12.5003C10.909 12.5003 12.4439 10.9241 12.4439 9.00004C12.4439 7.07589 10.909 5.49983 8.99874 5.49983Z" stroke="#373435" stroke-linecap="square"/>
</svg>
