<svg width="18" height="12" viewBox="0 0 18 12" fill="none" xmlns="http://www.w3.org/2000/svg">
<path d="M6.79023 11.613L6.70703 11.7072C6.34651 12.0676 5.77928 12.0953 5.38702 11.7902L5.29282 11.707L0.296204 6.70939C-0.0640427 6.34907 -0.0919103 5.78221 0.212711 5.38994L0.295794 5.29573L5.29241 0.292286C5.68266 -0.0985051 6.31583 -0.0989385 6.70662 0.291319C7.06735 0.651556 7.09547 1.21877 6.79071 1.61127L6.70759 1.70553L3.419 5L17 5C17.5128 5 17.9355 5.38604 17.9933 5.88338L18 6C18 6.51284 17.614 6.93551 17.1166 6.99327L17 7L3.416 7L6.70718 10.293C7.06762 10.6535 7.09529 11.2207 6.79023 11.613L6.70703 11.7072L6.79023 11.613Z" fill="#212121"/>
</svg>
