<svg width="16" height="16" viewBox="0 0 16 16" fill="none" xmlns="http://www.w3.org/2000/svg">
<path d="M15.8993 2.7713C15.3151 3.05092 14.6865 3.23953 14.0269 3.32394C14.7004 2.88975 15.2168 2.202 15.4603 1.38156C14.8304 1.78414 14.133 2.07626 13.3902 2.23395C12.7958 1.55176 11.9485 1.12521 11.0109 1.12521C9.21076 1.12521 7.75127 2.69697 7.75127 4.63588C7.75127 4.91063 7.77998 5.17844 7.83578 5.43583C5.12645 5.28924 2.72418 3.89186 1.11632 1.76781C0.83571 2.28606 0.675086 2.88906 0.675086 3.53304C0.675086 4.75085 1.2505 5.82555 2.12522 6.45495C1.5911 6.43654 1.08826 6.2785 0.648637 6.01555C0.648315 6.03014 0.648315 6.04508 0.648315 6.06001C0.648315 7.76064 1.77204 9.17922 3.26346 9.50225C2.98995 9.58214 2.70192 9.62521 2.40454 9.62521C2.19424 9.62521 1.99008 9.60333 1.79107 9.562C2.20618 10.9566 3.4099 11.9719 4.83616 12C3.7205 12.9417 2.3152 13.503 0.787652 13.503C0.524782 13.503 0.265138 13.4864 0.0100098 13.4537C1.45305 14.4503 3.16638 15.031 5.00711 15.031C11.0034 15.031 14.282 9.68183 14.282 5.04263C14.282 4.89049 14.2791 4.73869 14.273 4.58794C14.9097 4.09401 15.4625 3.47538 15.8993 2.7713Z" fill="#373435"/>
</svg>
