<svg width="32" height="29" viewBox="0 0 32 29" fill="none" xmlns="http://www.w3.org/2000/svg">
<path d="M31.7984 3.54267C30.6302 4.1019 29.3729 4.47913 28.0537 4.64794C29.4006 3.77956 30.4334 2.40406 30.9204 0.763177C29.6606 1.56833 28.2659 2.15258 26.7803 2.46797C25.5914 1.10358 23.8968 0.250488 22.0216 0.250488C18.4214 0.250488 15.5024 3.394 15.5024 7.27182C15.5024 7.82133 15.5598 8.35694 15.6714 8.87171C10.2528 8.57855 5.44823 5.78377 2.23252 1.53568C1.6713 2.57217 1.35005 3.77817 1.35005 5.06615C1.35005 7.50176 2.50087 9.65117 4.25032 10.91C3.18207 10.8731 2.17639 10.5571 1.29715 10.0312C1.29651 10.0603 1.29651 10.0902 1.29651 10.1201C1.29651 13.5213 3.54396 16.3585 6.5268 17.0046C5.97978 17.1643 5.40372 17.2505 4.80896 17.2505C4.38837 17.2505 3.98003 17.2067 3.58202 17.1241C4.41224 19.9133 6.81967 21.9439 9.67221 22.0001C7.44088 23.8835 4.63027 25.0061 1.57518 25.0061C1.04944 25.0061 0.530154 24.9728 0.0198975 24.9075C2.90598 26.9006 6.33263 28.0621 10.0141 28.0621C22.0067 28.0621 28.564 17.3637 28.564 8.08531C28.564 7.78103 28.5582 7.47745 28.5459 7.17595C29.8193 6.18809 30.925 4.95083 31.7984 3.54267Z" fill="#3975EA"/>
</svg>
