<svg width="28" height="28" viewBox="0 0 28 28" fill="none" xmlns="http://www.w3.org/2000/svg">
<path d="M23.3999 4.54675C20.9066 2.04008 17.5866 0.666748 14.0533 0.666748C6.77328 0.666748 0.839943 6.60008 0.839943 13.8801C0.839943 16.2134 1.45328 18.4801 2.59994 20.4801L0.733276 27.3334L7.73328 25.4934C9.66661 26.5467 11.8399 27.1067 14.0533 27.1067C21.3333 27.1067 27.2666 21.1734 27.2666 13.8934C27.2666 10.3601 25.8933 7.04008 23.3999 4.54675ZM14.0533 24.8667C12.0799 24.8667 10.1466 24.3334 8.45328 23.3334L8.05328 23.0934L3.89328 24.1867L4.99994 20.1334L4.73328 19.7201C3.63994 17.9734 3.05328 15.9467 3.05328 13.8801C3.05328 7.82675 7.98661 2.89341 14.0399 2.89341C16.9733 2.89341 19.7333 4.04008 21.7999 6.12008C23.8799 8.20008 25.0133 10.9601 25.0133 13.8934C25.0399 19.9467 20.1066 24.8667 14.0533 24.8667ZM20.0799 16.6534C19.7466 16.4934 18.1199 15.6934 17.8266 15.5734C17.5199 15.4667 17.3066 15.4134 17.0799 15.7334C16.8533 16.0667 16.2266 16.8134 16.0399 17.0267C15.8533 17.2534 15.6533 17.2801 15.3199 17.1067C14.9866 16.9467 13.9199 16.5867 12.6666 15.4667C11.6799 14.5867 11.0266 13.5067 10.8266 13.1734C10.6399 12.8401 10.7999 12.6667 10.9733 12.4934C11.1199 12.3467 11.3066 12.1067 11.4666 11.9201C11.6266 11.7334 11.6933 11.5867 11.7999 11.3734C11.9066 11.1467 11.8533 10.9601 11.7733 10.8001C11.6933 10.6401 11.0266 9.01342 10.7599 8.34675C10.4933 7.70675 10.2133 7.78675 10.0133 7.77341C9.81328 7.77341 9.59994 7.77341 9.37327 7.77341C9.14661 7.77341 8.79994 7.85341 8.49328 8.18675C8.19994 8.52008 7.34661 9.32008 7.34661 10.9467C7.34661 12.5734 8.53328 14.1467 8.69328 14.3601C8.85328 14.5867 11.0266 17.9201 14.3333 19.3467C15.1199 19.6934 15.7333 19.8934 16.2133 20.0401C16.9999 20.2934 17.7199 20.2534 18.2933 20.1734C18.9333 20.0801 20.2533 19.3734 20.5199 18.6001C20.7999 17.8267 20.7999 17.1734 20.7066 17.0267C20.6133 16.8801 20.4133 16.8134 20.0799 16.6534Z" fill="#3975EA"/>
</svg>
